<svg width="146" height="38" viewBox="0 0 146 38" fill="none" xmlns="http://www.w3.org/2000/svg">
<path d="M8.97727 22.321V37.2528H0.642044V2.34375H8.70454V15.8778H8.99432C9.58523 14.2642 10.5511 13.0028 11.892 12.0938C13.2443 11.1847 14.8977 10.7301 16.8523 10.7301C18.6932 10.7301 20.2955 11.1392 21.6591 11.9574C23.0227 12.7642 24.0795 13.9063 24.8295 15.3835C25.5909 16.8608 25.9659 18.5881 25.9545 20.5653V37.2528H17.6193V22.2017C17.6307 20.7472 17.267 19.6108 16.5284 18.7926C15.7898 17.9744 14.75 17.5653 13.4091 17.5653C12.5341 17.5653 11.7614 17.7585 11.0909 18.1449C10.4318 18.5199 9.91477 19.0597 9.53977 19.7642C9.17614 20.4688 8.98864 21.321 8.97727 22.321Z" fill="white"/>
<path d="M38.5384 37.696C36.8679 37.696 35.3849 37.4176 34.0895 36.8608C32.8054 36.2926 31.7884 35.4403 31.0384 34.304C30.2997 33.1563 29.9304 31.7188 29.9304 29.9915C29.9304 28.5369 30.1861 27.3097 30.6974 26.3097C31.2088 25.3097 31.9134 24.4972 32.8111 23.8722C33.7088 23.2472 34.7429 22.7756 35.9134 22.4574C37.0838 22.1278 38.3338 21.9063 39.6634 21.7926C41.152 21.6563 42.3509 21.5142 43.2599 21.3665C44.169 21.2074 44.8281 20.9858 45.2372 20.7017C45.6577 20.4063 45.8679 19.9915 45.8679 19.4574V19.3722C45.8679 18.4972 45.5668 17.821 44.9645 17.3438C44.3622 16.8665 43.5497 16.6278 42.527 16.6278C41.4247 16.6278 40.5384 16.8665 39.8679 17.3438C39.1974 17.821 38.7713 18.4801 38.5895 19.321L30.902 19.0483C31.1293 17.4574 31.7145 16.0369 32.6577 14.7869C33.6122 13.5256 34.919 12.5369 36.5781 11.821C38.2486 11.0938 40.2543 10.7301 42.5952 10.7301C44.2656 10.7301 45.8054 10.929 47.2145 11.3267C48.6236 11.7131 49.8509 12.2813 50.8963 13.0313C51.9418 13.7699 52.7486 14.679 53.3168 15.7585C53.8963 16.8381 54.1861 18.071 54.1861 19.4574V37.2528H46.3452V33.6051H46.1406C45.6747 34.4915 45.0781 35.2415 44.3509 35.8551C43.6349 36.4688 42.7884 36.929 41.8111 37.2358C40.8452 37.5426 39.7543 37.696 38.5384 37.696ZM41.1122 32.2415C42.0099 32.2415 42.8168 32.0597 43.5327 31.696C44.2599 31.3324 44.8395 30.8324 45.2713 30.196C45.7031 29.5483 45.919 28.7983 45.919 27.946V25.4574C45.6804 25.5824 45.3906 25.696 45.0497 25.7983C44.7202 25.9006 44.3565 25.9972 43.9588 26.0881C43.5611 26.179 43.152 26.2585 42.7315 26.3267C42.3111 26.3949 41.9077 26.4574 41.5213 26.5142C40.7372 26.6392 40.0668 26.8324 39.5099 27.0938C38.9645 27.3551 38.544 27.696 38.2486 28.1165C37.9645 28.5256 37.8224 29.0142 37.8224 29.5824C37.8224 30.446 38.1293 31.1051 38.7429 31.5597C39.3679 32.0142 40.1577 32.2415 41.1122 32.2415Z" fill="white"/>
<path d="M59.2827 37.2528V2.34375H67.6179V15.554H67.7884C68.1293 14.7585 68.6122 13.9915 69.2372 13.2528C69.8736 12.5142 70.6804 11.9119 71.6577 11.446C72.6463 10.9688 73.8281 10.7301 75.2031 10.7301C77.0213 10.7301 78.7202 11.2074 80.2997 12.1619C81.8906 13.1165 83.1747 14.5881 84.152 16.5767C85.1293 18.5653 85.6179 21.0994 85.6179 24.179C85.6179 27.1449 85.1463 29.6278 84.2031 31.6278C83.2713 33.6278 82.0099 35.1278 80.419 36.1278C78.8395 37.1278 77.0838 37.6278 75.152 37.6278C73.8338 37.6278 72.6918 37.4119 71.7259 36.9801C70.7599 36.5483 69.9474 35.9801 69.2884 35.2756C68.6406 34.571 68.1406 33.8153 67.7884 33.0085H67.5327V37.2528H59.2827ZM67.4474 24.1619C67.4474 25.571 67.6349 26.7983 68.0099 27.8438C68.3963 28.8892 68.9474 29.7017 69.6634 30.2813C70.3906 30.8494 71.2599 31.1335 72.2713 31.1335C73.294 31.1335 74.1634 30.8494 74.8793 30.2813C75.5952 29.7017 76.1349 28.8892 76.4986 27.8438C76.8736 26.7983 77.0611 25.571 77.0611 24.1619C77.0611 22.7528 76.8736 21.5313 76.4986 20.4972C76.1349 19.4631 75.5952 18.6619 74.8793 18.0938C74.1747 17.5256 73.3054 17.2415 72.2713 17.2415C71.2486 17.2415 70.3793 17.5199 69.6634 18.0767C68.9474 18.6335 68.3963 19.429 68.0099 20.4631C67.6349 21.4972 67.4474 22.7301 67.4474 24.1619Z" fill="white"/>
<path d="M89.9858 37.2528V11.071H98.321V37.2528H89.9858ZM94.1619 8.01989C92.9915 8.01989 91.9858 7.63353 91.1449 6.8608C90.304 6.07671 89.8835 5.13353 89.8835 4.03125C89.8835 2.94034 90.304 2.00853 91.1449 1.2358C91.9858 0.451708 92.9915 0.0596619 94.1619 0.0596619C95.3438 0.0596619 96.3494 0.451708 97.179 1.2358C98.0199 2.00853 98.4403 2.94034 98.4403 4.03125C98.4403 5.13353 98.0199 6.07671 97.179 6.8608C96.3494 7.63353 95.3438 8.01989 94.1619 8.01989Z" fill="white"/>
<path d="M118.405 11.071V17.2074H101.888V11.071H118.405ZM105.348 4.7983H113.683V29.0199C113.683 29.5313 113.763 29.946 113.922 30.2642C114.092 30.571 114.337 30.7926 114.655 30.929C114.973 31.054 115.354 31.1165 115.797 31.1165C116.115 31.1165 116.45 31.0881 116.803 31.0313C117.166 30.9631 117.439 30.9063 117.621 30.8608L118.882 36.8778C118.484 36.9915 117.922 37.1335 117.195 37.304C116.479 37.4744 115.621 37.5824 114.621 37.6278C112.666 37.7188 110.99 37.4915 109.592 36.946C108.206 36.3892 107.143 35.5256 106.405 34.3551C105.678 33.1847 105.325 31.7131 105.348 29.9403V4.7983Z" fill="white"/>
<path d="M145.188 19.0653L137.534 19.2699C137.455 18.7244 137.239 18.2415 136.886 17.821C136.534 17.3892 136.074 17.054 135.506 16.8153C134.949 16.5653 134.301 16.4403 133.562 16.4403C132.597 16.4403 131.773 16.6335 131.091 17.0199C130.42 17.4063 130.091 17.929 130.102 18.5881C130.091 19.0994 130.295 19.5426 130.716 19.9176C131.148 20.2926 131.915 20.5938 133.017 20.821L138.062 21.7756C140.676 22.2756 142.619 23.1051 143.892 24.2642C145.176 25.4233 145.824 26.9574 145.835 28.8665C145.824 30.6619 145.29 32.2244 144.233 33.554C143.188 34.8835 141.756 35.9176 139.938 36.6563C138.119 37.3835 136.04 37.7472 133.699 37.7472C129.96 37.7472 127.011 36.9801 124.852 35.446C122.705 33.9006 121.477 31.8324 121.17 29.2415L129.403 29.0369C129.585 29.9915 130.057 30.7188 130.818 31.2188C131.58 31.7188 132.551 31.9688 133.733 31.9688C134.801 31.9688 135.67 31.7699 136.341 31.3722C137.011 30.9744 137.352 30.446 137.364 29.7869C137.352 29.196 137.091 28.7244 136.58 28.3722C136.068 28.0085 135.267 27.7244 134.176 27.5199L129.608 26.6506C126.983 26.1733 125.028 25.2926 123.744 24.0085C122.46 22.7131 121.824 21.0653 121.835 19.0653C121.824 17.3153 122.29 15.821 123.233 14.5824C124.176 13.3324 125.517 12.3778 127.256 11.7188C128.994 11.0597 131.045 10.7301 133.409 10.7301C136.955 10.7301 139.75 11.4744 141.795 12.9631C143.841 14.4403 144.972 16.4744 145.188 19.0653Z" fill="white"/>
</svg>
